<svg width="876" height="31" viewBox="0 0 876 31" fill="none" xmlns="http://www.w3.org/2000/svg">
<path d="M0.611847 28.9248C1.38677 28.2576 1.78783 30.0411 1.02298 30.5723C1.02392 30.5726 1.02502 30.5739 1.02591 30.5742C0.993712 30.5943 0.708726 30.4597 0.48587 30.2744C0.39336 30.1707 0.213026 30.1143 0.139191 30.0273C0.0603658 29.943 0.0258112 29.8636 0.011261 29.8408C-0.032911 29.7815 0.0685149 29.6678 0.073761 29.6338C0.0922325 29.5922 0.124796 29.5652 0.168488 29.5488C0.247271 29.5214 0.42076 29.507 0.512238 29.5498C0.727031 29.617 0.979674 29.7055 1.12747 29.4561C1.25516 29.2013 0.458326 29.0535 0.611847 28.9248ZM133.656 0.286133C135.472 -0.48634 137.57 0.35918 138.342 2.1748L143.771 14.9336C144.636 16.9663 143.688 19.3149 141.656 20.1797L128.898 25.6084C127.082 26.3809 124.984 25.5352 124.211 23.7197C123.439 21.9039 124.284 19.8048 126.1 19.0322L130.639 17.1006C130.626 17.096 130.612 17.0926 130.599 17.0879C130.445 17.0322 130.641 16.6734 130.631 16.6416C130.558 16.4282 130.08 16.1751 130.03 16.1367C129.754 15.926 129.577 16.7635 129.458 16.7793C128.221 16.9361 127.228 16.527 126.113 16.2373C125.931 16.1902 126.217 15.7641 126.124 15.7402C123.796 15.1726 121.48 14.9138 119.199 14.2119C119.255 13.9459 119.325 13.6547 119.368 13.4033C119.177 13.1783 118.866 14.0438 118.748 14.0576C116.99 14.2363 115.463 13.8038 113.901 13.4102C113.67 13.353 114.037 12.9734 113.865 12.9033C113.459 12.7409 113.008 12.6737 112.562 12.7217C112.376 12.7435 112.526 13.1619 112.34 13.1914C111.957 13.2522 111.505 13.1799 111.165 13.0391C110.998 12.9717 111.245 12.5739 111.139 12.541C109.836 12.1276 108.531 12.0463 107.221 11.6748C107.124 11.6433 107.33 11.2118 107.214 11.1836C105.378 10.737 103.795 10.7818 101.808 10.6025C100.293 10.4679 98.2966 10.3512 96.7505 9.83301C96.4331 9.72787 96.2442 10.0128 95.9234 9.63184C95.8532 9.5479 95.6072 8.74462 95.2886 9.2627C95.2427 9.33678 95.2986 9.69686 95.1255 9.72168C94.2032 9.84531 93.2525 9.76382 92.3531 9.57324C92.2015 9.54225 92.4482 9.11756 92.2808 9.07617C91.8197 8.96871 91.3063 8.87604 90.8199 9.04102C90.6471 9.1002 90.7598 9.81841 90.5396 9.45117C90.5185 9.41366 90.6516 9.03457 90.5288 8.99316C90.0832 8.84032 89.6636 9.18133 89.1988 8.84473C89.1244 8.78882 89.0657 7.95815 88.7632 8.53809C88.7454 8.57573 88.8499 8.92929 88.6411 8.95703C88.0723 9.02962 87.3569 9.06784 86.7964 8.91309C86.5934 8.85676 86.8357 8.46149 86.6997 8.41504C86.1896 8.2442 85.6555 8.24242 85.1607 8.07324C85.0216 8.02293 85.1432 7.63561 85.1226 7.6123C84.9574 7.48421 84.7042 8.19815 84.6118 8.37012C84.2661 9.01859 83.7343 7.94022 83.6792 7.80566C83.3669 7.00943 83.3924 7.90942 83.3208 8.0127C82.9801 8.50692 83.02 7.76297 82.8814 7.66016C82.4132 7.32008 81.8751 7.59336 81.4478 7.59668C81.1866 7.59979 81.3769 8.01225 81.3462 8.04199C80.9881 8.33168 80.672 8.45573 80.3208 8.49902C80.1745 8.51825 80.215 8.19345 80.0572 8.1709C79.7033 8.12364 79.3149 8.30215 78.9429 8.21875C78.8355 8.19387 78.9706 7.77256 78.8433 7.73926C78.2221 7.58154 77.738 8.03985 77.0591 7.69824C76.9896 7.66376 76.6807 6.60844 76.3853 6.71582C75.7749 6.94217 76.7781 7.36001 75.9868 7.91504C75.0057 8.6054 73.0781 8.35166 71.9663 8.39453C71.6686 8.4046 71.8168 8.07315 71.6158 8.0957C70.6931 8.20321 69.7848 8.53207 68.9038 8.69141C68.4688 8.76982 68.025 8.80975 67.563 8.7627C67.2399 8.72995 67.3551 7.80036 67.1089 7.56934C66.8615 7.33902 66.4636 7.54119 66.2788 7.72168C66.0964 7.90235 66.2782 8.45079 66.0992 8.56348C65.5959 8.88313 64.9981 8.73891 64.4888 9.0166C64.3822 9.07497 64.505 9.41131 64.4859 9.50098C64.3645 10.0726 63.9747 9.41421 63.896 9.34375C63.4546 8.9454 63.1236 9.29292 62.7896 9.12695C62.5716 9.01925 62.6578 8.7632 62.5659 8.67383C62.0813 8.21701 62.311 9.24563 62.315 9.41309C62.3347 10.4241 61.5603 9.10694 61.5279 9.06836C61.0777 8.5102 60.9826 9.34857 60.9097 9.51074C60.6711 10.0258 60.2224 9.84251 59.9868 9.93848C59.7532 10.0338 59.8008 9.6027 59.7818 9.56836C59.4615 9.07847 59.4122 9.90919 59.4087 9.9668C59.3586 10.7819 58.6432 10.0158 58.5669 10.0078C57.2632 9.94161 56.5394 10.9254 55.2427 10.8506C55.1893 10.8477 54.6609 10.1066 54.6031 10.7324C54.5947 10.836 54.7809 11.1234 54.6363 11.2207C54.0474 11.6104 53.3195 11.836 52.6402 11.9785C52.496 12.008 52.4888 11.5241 52.3902 11.5498C51.6641 11.7335 50.9586 12.128 50.2837 12.3984C50.1398 12.4558 50.0557 12.1771 50.0318 12.1719C49.7554 12.1383 49.986 12.5653 49.7271 12.5439C49.5282 12.5253 48.8398 11.3502 48.7202 11.3174C48.21 11.185 48.1539 11.5398 48.0943 12.1914C48.0779 12.371 48.5237 13.1974 48.0542 12.875C48.0364 12.8577 47.9593 12.4943 47.9146 12.4902C47.5797 12.4665 47.4493 12.7195 47.106 12.7559C46.6719 12.8029 45.8919 12.9377 45.5308 13.1025C44.7702 13.4462 44.4981 14.0588 43.563 13.8223C43.5312 13.8094 43.2074 13.0309 43.0005 13.3174C42.7929 13.6061 42.4285 14.0913 42.064 14.125C42.062 14.9245 41.7539 15.151 41.2036 15.0186C40.6535 14.8861 40.1211 14.517 39.6577 14.9014C39.6261 14.9309 39.8048 15.3273 39.7915 15.3408C38.9408 15.8618 38.0013 16.122 36.9693 16.1572C36.9258 16.1584 36.8217 15.7818 36.7329 15.7695C36.5692 15.7497 35.9295 16.1067 35.9156 16.2178C35.906 16.2068 35.584 15.5424 35.6441 15.9893C35.5452 16.2545 35.9065 16.2135 35.9156 16.2178C35.8947 16.389 35.6901 17.5229 35.1597 17.1523C34.8854 16.9613 34.8143 16.5449 34.3863 16.6201C33.7257 16.7344 33.1047 17.6428 32.4283 18.0127C32.0401 18.226 31.2545 18.3144 30.8687 18.4844C30.0767 18.8335 29.4964 19.3744 28.7134 19.668C28.6106 19.7068 28.5154 19.3006 28.48 19.2988C28.0938 19.3047 27.9289 19.7013 27.565 19.7471C27.4277 19.7645 27.4401 19.3272 27.2456 19.3721C26.7025 19.4994 26.3559 20.391 25.6968 20.2002C25.408 20.1162 25.2005 19.4221 24.9292 19.4502C24.3313 19.513 24.7106 19.9147 24.7281 20.4004C24.7575 21.44 24.37 21.4743 23.7495 20.6328C23.7732 20.5695 23.9826 20.5793 23.9527 20.4814C23.6731 19.5864 23.3418 19.6706 23.7495 20.6328C23.5554 20.782 23.2283 20.8129 23.6284 21.332C23.662 21.3757 23.8939 20.9237 23.9185 21.5166C23.9283 21.7468 23.8524 22.5901 23.4536 22.3789C23.0545 22.167 22.591 21.2094 22.3013 21.71C22.2854 21.7393 22.4452 22.0378 22.4429 22.1113C22.422 22.6671 21.8658 22.2236 21.7095 22.1992C21.1764 22.1196 21.0439 22.4541 20.7642 22.7412C20.6114 22.8984 21.1915 23.4771 20.7163 23.2432C20.6414 23.2067 19.866 22.4489 19.8335 22.4561C19.2801 22.6697 20.0745 24.4224 19.3794 24.126C19.2171 24.0549 19.0233 23.206 18.7798 23.668C18.7163 23.7921 18.837 24.0184 18.7105 24.1143C18.3489 24.3881 17.6613 24.3631 17.8492 25.3428C17.4181 25.4209 16.8142 25.1865 16.4165 25.2715C15.9078 25.3819 15.6638 25.8644 15.1812 26.0273C15.0677 26.0644 14.9648 25.6113 14.8638 25.6543C14.0548 26.0207 13.4147 26.6524 12.6353 27.0869C12.2272 26.3463 11.802 25.5939 11.4038 24.8535C11.1999 25.3347 11.8252 25.8972 11.9273 26.4268C12.0292 26.9525 11.4817 26.4526 11.4644 26.9395C11.4519 27.112 11.516 27.7571 11.3833 27.9014C11.162 28.1404 10.7947 28.1244 10.5074 28.1357C10.2194 28.1484 10.2066 28.4452 9.9097 28.4033C9.86314 28.3945 9.71465 28.1111 9.6597 28.0674C9.22309 27.7278 9.25512 28.6087 9.25345 28.6758C9.21237 29.6855 8.81861 28.639 8.57083 28.4736C7.43578 27.6865 7.84507 29.0744 7.2847 29.4932C7.11597 29.6167 6.6105 28.7379 6.31009 28.7266C5.83633 28.7143 5.54088 29.1231 4.96927 29.0586C4.85081 29.0394 3.97618 28.3265 4.2222 29.2393C4.24733 29.3227 4.94535 30.7072 4.41751 30.4756C4.34828 30.4466 3.6017 29.75 3.52396 29.7275C3.17071 29.6526 3.08801 30.0692 2.8638 30.0215C2.63947 29.9726 2.18126 29.0391 2.20267 28.9863C2.49399 28.3228 3.65956 30.4257 2.84525 28.3691C3.44289 29.007 3.57594 28.4165 4.01321 28.2988C4.04446 28.2937 4.1233 28.7339 4.30716 28.6289C4.72688 28.3813 5.30075 28.1268 5.64798 27.6719C5.79296 27.4643 5.42632 27.3974 5.50833 27.1406C5.5926 26.8824 5.89623 27.1895 5.90482 26.6455C5.90554 26.5022 5.92758 25.6768 6.37747 25.9688C6.42964 26.0023 6.58183 26.282 6.63528 26.3037C6.86211 26.3885 6.84348 26.094 7.05618 26.1699C7.10695 26.1874 7.18728 26.5126 7.27786 26.5195C7.74933 26.5476 7.95019 26.4199 8.39896 27.2393C8.64664 26.9825 8.43775 26.0209 8.59329 25.7461C8.77746 25.3973 9.1377 25.7304 9.3472 25.5996C9.55772 25.4672 9.3312 25.1893 9.50931 25.0771C9.98449 24.7779 10.5926 24.7893 11.0415 24.4424C11.1508 24.3596 11.0885 24.0105 11.2515 23.9082C11.3621 23.8402 11.8509 24.4078 11.9107 24.4023C13.2219 24.2679 13.912 23.1433 15.1402 22.9053C15.0932 21.4183 16.654 23.5583 17.0552 23.5791C18.0543 23.6329 16.7906 21.963 16.9097 21.3535C17.0147 20.7994 17.7223 21.0898 17.8697 20.9854C18.6815 20.4115 19.0861 19.8024 20.0034 19.626C20.0287 19.6286 20.1309 20.0386 20.2525 19.9834C20.5077 19.867 20.7947 19.5755 21.0337 19.4434C21.1843 19.3607 21.58 19.9125 21.605 19.9238C22.2922 20.1521 22.419 19.4965 22.2867 18.7607C22.1541 18.0247 22.5929 18.7584 22.5601 18.3018C22.5491 18.1587 22.4136 17.9556 22.4146 17.875C22.4281 17.2803 23.0129 17.7624 23.1704 17.7939C23.8225 17.9232 24.2754 17.2207 24.6148 17.0342C24.9488 16.8503 24.5522 16.6135 24.5435 16.5674C24.4886 15.9183 24.8771 16.6621 24.9136 16.6729C25.9087 16.8847 26.2871 16.0405 27.19 15.9805C27.2749 15.9779 27.7469 16.6579 27.7222 16.0195C27.72 15.9775 27.507 15.6883 27.6021 15.6035C27.8788 15.3559 28.2628 15.2408 28.5855 15.0635C29.1139 15.7452 29.7062 15.7918 29.2163 14.6826C29.6995 14.392 30.3294 13.6223 30.8169 13.4951C31.4369 13.3341 31.7889 14.0071 32.2652 13.6387C32.336 13.5803 32.1116 13.2512 32.1275 13.2246C32.5531 12.6986 32.6505 13.5359 33.062 14.1494C33.1874 14.337 33.2899 13.9459 33.3902 14.0127C33.723 14.2347 33.8471 14.6924 34.1646 14.5586C34.6948 14.3352 34.6584 13.6379 34.1675 12.6729C34.856 13.2688 34.8775 14.0455 35.4742 13.5078C35.5299 13.455 35.2688 13.0977 35.3697 13.0166C36.1135 12.4337 36.9947 12.0668 37.7339 11.4609C37.8261 11.3826 37.5964 11.0556 37.6187 11.0303C38.013 10.6003 38.0514 11.3774 38.4409 11.9824C38.6256 12.2677 39.3271 12.6049 39.4868 12.4746C39.6456 12.3441 39.4004 12.2054 39.4165 12.0127C39.4332 11.8201 39.6178 12.0998 39.5689 11.7793C39.5214 11.4574 38.7814 10.1551 39.3286 10.2432C39.8745 10.333 39.8195 10.995 40.4693 10.5381C40.8295 10.2859 41.0704 10.2569 41.7349 9.94629C42.3988 9.63394 43.799 8.46641 44.8247 8.64355C45.0957 8.69004 45.1339 9.53276 45.3179 9.79785C45.6186 9.70202 45.2322 9.31972 45.2271 8.97461C45.2222 8.62717 45.5704 9.12563 45.5611 8.60645C45.5581 8.4637 45.5076 7.78999 45.8941 8.19727C45.9187 8.22727 45.943 8.57086 46.1089 8.56445C46.4533 8.54961 46.5893 8.34089 46.815 9.17773C47.007 8.71428 46.3009 7.75235 46.8052 7.77539C46.8275 7.7802 46.8732 8.20923 47.0083 8.18359C48.7384 7.85756 50.1285 6.7134 51.8824 6.25977C51.9169 6.24918 52.3617 6.32486 52.5034 6.44727C52.5271 6.46988 52.5269 6.88923 52.732 6.84277C52.9378 6.79553 53.4725 6.66066 53.6509 6.49512C53.8304 6.3288 53.5423 6.08439 53.6343 5.98242C53.8421 5.75425 53.7541 6.33112 53.9742 6.35449C54.2702 6.38591 54.7089 6.19509 54.9351 6.02344C55.0861 5.90859 54.9097 5.62002 54.9224 5.53125C55.0169 4.91544 55.58 5.5767 55.6685 5.61719C56.2127 5.86202 56.3531 5.40922 56.7759 5.41406C56.8824 5.41689 56.8613 5.72581 56.9654 5.66504C57.3448 5.4412 57.4155 4.08969 58.0269 4.62402C58.2843 4.85161 58.2679 6.28685 58.7368 5.63867C58.8075 5.53967 58.6304 5.33389 58.6988 5.17188C58.7672 5.00946 59.0869 4.51796 59.2427 4.68359C59.3984 4.85167 59.6946 6.5777 59.813 5.80078C59.9345 5.02039 59.6757 4.86289 60.1353 4.25684C60.1436 4.23318 59.9272 3.89984 60.1206 3.78223C60.3169 3.66302 61.0748 3.5305 61.2398 3.47559C61.6547 3.33905 61.7922 4.49944 61.8599 4.56641C62.3866 5.05944 62.2987 4.05782 62.521 3.70996C62.6186 3.56035 62.7654 3.68683 62.8716 3.54785C62.9049 3.50245 62.7751 3.14082 62.7896 3.13477C63.2755 3.05039 63.5652 5.09025 63.8492 4.64355C63.8823 4.58484 63.6478 3.99401 63.732 3.7168C63.7546 3.64007 63.9986 2.62756 64.1626 2.80371C64.8079 3.50805 64.755 4.17353 65.4917 3.82715C65.5524 3.79788 65.4357 3.39199 65.4663 3.37695C66.3734 2.90742 67.3245 2.65425 68.2691 2.50391C69.8914 2.24614 71.5635 2.28157 73.2154 2.00098C73.68 2.99748 74.2202 2.26843 74.8443 2.48828C74.9238 2.52173 75.0931 3.36518 75.3296 2.72852C75.344 2.68725 75.1695 2.36073 75.4087 2.30371C76.9623 1.93495 78.6165 1.83664 80.1704 2.01172C80.4027 2.03771 80.2015 2.46917 80.2827 2.48926C80.9679 2.63903 81.4682 1.77576 82.1812 2.06738C82.2385 2.09007 82.3829 2.94368 82.6343 2.36035C82.6505 2.3231 82.6265 1.9739 82.7056 1.94434C83.0812 1.8003 83.1213 2.56786 83.5132 2.4043C83.6025 2.36608 83.4613 1.95255 83.6451 1.91504C84.4754 1.75537 85.3512 1.7763 86.1753 1.91113C86.3345 1.93841 86.1004 2.39668 86.2661 2.4082C86.9839 2.45573 87.5315 2.68596 88.3443 2.29883C88.4508 2.24519 88.9981 1.44263 89.2261 1.9834C89.2529 2.05016 89.186 2.39896 89.2984 2.45312C89.8515 2.7142 90.4988 2.65538 91.063 2.86426C91.1961 2.91427 91.0341 3.29281 91.1206 3.3457C91.5031 3.5822 91.2343 3.09769 91.5913 2.90332C92.1457 2.60158 92.8524 2.61376 93.4351 2.61621C93.7131 4.46655 95.1431 3.82986 96.0347 3.6123C96.1798 3.57461 96.0603 3.13961 96.2027 3.12695C97.6227 3.0051 99.0075 3.1626 100.376 3.43848C100.505 3.46532 100.306 3.91009 100.412 3.93066C101.414 4.1306 102.316 4.06207 103.358 4.21582C104.234 4.34662 105.169 4.67651 106.08 4.84863C107.284 5.07486 108.449 4.81014 109.664 5.41699C109.731 5.45438 110.103 6.38753 110.452 5.83789C110.494 5.77244 110.49 5.45044 110.666 5.38965C110.843 5.3293 111.309 5.38955 111.477 5.49414C111.641 5.59807 111.412 5.95954 111.519 6.00293C112.024 6.19858 112.639 6.13117 113.121 6.22461C113.472 6.29548 113.533 6.31251 113.915 6.33203C114.116 6.34418 114.581 6.51685 114.851 6.48047C114.97 6.46384 114.953 6.06158 114.987 6.03906C115.481 5.72771 114.92 6.35171 115.308 6.50098C116.21 6.84686 117.318 7.06447 118.378 6.91113C118.645 6.87185 118.691 6.11916 118.958 6.65918C118.973 6.69573 118.817 7.03509 118.936 7.08398C120.003 7.50542 121.316 7.43008 122.411 7.63574C125.627 8.2331 128.757 8.89307 131.96 9.33105C132.628 9.42962 133.126 9.66562 133.775 9.69238L131.767 4.97266C130.995 3.15691 131.84 1.05878 133.656 0.286133ZM7.0054 27.749C6.98364 27.356 6.48641 27.2467 6.50735 27.5605C6.53281 27.9519 7.02152 28.0651 7.0054 27.749ZM10.5913 27.3145C11.1881 27.4856 10.1493 25.6371 10.0161 26.293C10.0092 26.3323 10.556 27.3028 10.5913 27.3145ZM14.2251 25.5918C14.2195 25.0239 13.5614 24.2692 13.5445 25.0166C13.5404 25.244 14.2313 26.1568 14.2251 25.5918ZM28.5865 15.0625C28.523 14.4365 28.8102 14.3729 29.2202 14.7158C29.0109 14.8379 28.7922 14.9385 28.5865 15.0625ZM44.2027 12.707C44.598 12.947 44.0648 11.5508 43.9429 12.0254C43.9364 12.0488 44.1801 12.6856 44.2027 12.707ZM43.7076 10.1846C43.6945 10.1688 43.4945 10.2585 43.4947 10.2793C43.5705 10.7758 43.9767 10.5927 43.7076 10.1846ZM57.3013 6.42188C57.2748 6.29867 57.1264 6.35523 57.1275 6.37793C57.1472 6.7582 57.3859 6.81761 57.3013 6.42188ZM66.6587 3.58398C66.6352 3.54786 66.1265 3.65434 66.1187 3.69824C66.0022 4.53595 67.0237 4.31857 66.6587 3.58398Z" fill="#2D96BC"/>
<path d="M366.446 28.9248C367.221 28.2576 367.622 30.0411 366.857 30.5723C366.858 30.5726 366.859 30.5739 366.86 30.5742C366.828 30.5943 366.543 30.4597 366.32 30.2744C366.227 30.1707 366.047 30.1143 365.973 30.0273C365.894 29.943 365.86 29.8636 365.845 29.8408C365.801 29.7815 365.902 29.6678 365.908 29.6338C365.926 29.5922 365.959 29.5652 366.002 29.5488C366.081 29.5214 366.255 29.507 366.346 29.5498C366.561 29.617 366.814 29.7055 366.961 29.4561C367.089 29.2013 366.292 29.0535 366.446 28.9248ZM499.49 0.286133C501.305 -0.48634 503.404 0.35918 504.176 2.1748L509.605 14.9336C510.47 16.9663 509.522 19.3149 507.49 20.1797L494.732 25.6084C492.916 26.3809 490.818 25.5352 490.045 23.7197C489.273 21.9039 490.118 19.8048 491.934 19.0322L496.473 17.1006C496.46 17.096 496.446 17.0926 496.433 17.0879C496.279 17.0322 496.475 16.6734 496.465 16.6416C496.392 16.4282 495.914 16.1751 495.864 16.1367C495.588 15.926 495.411 16.7635 495.292 16.7793C494.055 16.9361 493.062 16.527 491.947 16.2373C491.765 16.1902 492.051 15.7641 491.958 15.7402C489.63 15.1726 487.314 14.9138 485.033 14.2119C485.089 13.9459 485.159 13.6547 485.202 13.4033C485.011 13.1783 484.7 14.0438 484.582 14.0576C482.824 14.2363 481.297 13.8038 479.735 13.4102C479.504 13.353 479.871 12.9734 479.699 12.9033C479.293 12.7409 478.842 12.6737 478.396 12.7217C478.21 12.7435 478.36 13.1619 478.174 13.1914C477.791 13.2522 477.339 13.1799 476.999 13.0391C476.832 12.9717 477.079 12.5739 476.973 12.541C475.67 12.1276 474.365 12.0463 473.055 11.6748C472.958 11.6433 473.164 11.2118 473.048 11.1836C471.212 10.737 469.629 10.7818 467.642 10.6025C466.127 10.4679 464.131 10.3512 462.584 9.83301C462.267 9.72787 462.078 10.0128 461.757 9.63184C461.687 9.5479 461.441 8.74462 461.123 9.2627C461.077 9.33678 461.133 9.69686 460.959 9.72168C460.037 9.84531 459.086 9.76382 458.187 9.57324C458.035 9.54225 458.282 9.11756 458.115 9.07617C457.654 8.96871 457.14 8.87604 456.654 9.04102C456.481 9.1002 456.594 9.81841 456.374 9.45117C456.352 9.41366 456.486 9.03457 456.363 8.99316C455.917 8.84032 455.498 9.18133 455.033 8.84473C454.958 8.78882 454.9 7.95815 454.597 8.53809C454.579 8.57573 454.684 8.92929 454.475 8.95703C453.906 9.02962 453.191 9.06784 452.63 8.91309C452.427 8.85676 452.67 8.46149 452.534 8.41504C452.024 8.2442 451.489 8.24242 450.995 8.07324C450.856 8.02293 450.977 7.63561 450.957 7.6123C450.791 7.48421 450.538 8.19815 450.446 8.37012C450.1 9.01859 449.568 7.94022 449.513 7.80566C449.201 7.00943 449.226 7.90942 449.155 8.0127C448.814 8.50692 448.854 7.76297 448.715 7.66016C448.247 7.32008 447.709 7.59336 447.282 7.59668C447.021 7.59979 447.211 8.01225 447.18 8.04199C446.822 8.33168 446.506 8.45573 446.155 8.49902C446.008 8.51825 446.049 8.19345 445.891 8.1709C445.537 8.12364 445.149 8.30215 444.777 8.21875C444.669 8.19387 444.805 7.77256 444.677 7.73926C444.056 7.58154 443.572 8.03985 442.893 7.69824C442.824 7.66376 442.515 6.60844 442.219 6.71582C441.609 6.94217 442.612 7.36001 441.821 7.91504C440.84 8.6054 438.912 8.35166 437.8 8.39453C437.503 8.4046 437.651 8.07315 437.45 8.0957C436.527 8.20321 435.619 8.53207 434.738 8.69141C434.303 8.76982 433.859 8.80975 433.397 8.7627C433.074 8.72995 433.189 7.80036 432.943 7.56934C432.695 7.33902 432.298 7.54119 432.113 7.72168C431.93 7.90235 432.112 8.45079 431.933 8.56348C431.43 8.88313 430.832 8.73891 430.323 9.0166C430.216 9.07497 430.339 9.41131 430.32 9.50098C430.198 10.0726 429.809 9.41421 429.73 9.34375C429.289 8.9454 428.958 9.29292 428.624 9.12695C428.406 9.01925 428.492 8.7632 428.4 8.67383C427.915 8.21701 428.145 9.24563 428.149 9.41309C428.169 10.4241 427.394 9.10694 427.362 9.06836C426.912 8.5102 426.817 9.34857 426.744 9.51074C426.505 10.0258 426.056 9.84251 425.821 9.93848C425.587 10.0338 425.635 9.6027 425.616 9.56836C425.295 9.07847 425.246 9.90919 425.243 9.9668C425.193 10.7819 424.477 10.0158 424.401 10.0078C423.097 9.94161 422.373 10.9254 421.077 10.8506C421.023 10.8477 420.495 10.1066 420.437 10.7324C420.429 10.836 420.615 11.1234 420.47 11.2207C419.881 11.6104 419.153 11.836 418.474 11.9785C418.33 12.008 418.323 11.5241 418.224 11.5498C417.498 11.7335 416.793 12.128 416.118 12.3984C415.974 12.4558 415.89 12.1771 415.866 12.1719C415.589 12.1383 415.82 12.5653 415.561 12.5439C415.362 12.5253 414.674 11.3502 414.554 11.3174C414.044 11.185 413.988 11.5398 413.928 12.1914C413.912 12.371 414.358 13.1974 413.888 12.875C413.87 12.8577 413.793 12.4943 413.749 12.4902C413.414 12.4665 413.283 12.7195 412.94 12.7559C412.506 12.8029 411.726 12.9377 411.365 13.1025C410.604 13.4462 410.332 14.0588 409.397 13.8223C409.365 13.8094 409.041 13.0309 408.834 13.3174C408.627 13.6061 408.262 14.0913 407.898 14.125C407.896 14.9245 407.588 15.151 407.038 15.0186C406.487 14.8861 405.955 14.517 405.492 14.9014C405.46 14.9309 405.639 15.3273 405.625 15.3408C404.775 15.8618 403.835 16.122 402.803 16.1572C402.76 16.1584 402.656 15.7818 402.567 15.7695C402.403 15.7497 401.763 16.1067 401.75 16.2178C401.74 16.2068 401.418 15.5424 401.478 15.9893C401.379 16.2545 401.74 16.2135 401.75 16.2178C401.729 16.389 401.524 17.5229 400.994 17.1523C400.719 16.9613 400.648 16.5449 400.22 16.6201C399.56 16.7344 398.939 17.6428 398.262 18.0127C397.874 18.226 397.088 18.3144 396.703 18.4844C395.911 18.8335 395.33 19.3744 394.547 19.668C394.445 19.7068 394.349 19.3006 394.314 19.2988C393.928 19.3047 393.763 19.7013 393.399 19.7471C393.262 19.7645 393.274 19.3272 393.08 19.3721C392.536 19.4994 392.19 20.391 391.531 20.2002C391.242 20.1162 391.034 19.4221 390.763 19.4502C390.165 19.513 390.545 19.9147 390.562 20.4004C390.591 21.44 390.204 21.4743 389.583 20.6328C389.607 20.5695 389.817 20.5793 389.787 20.4814C389.507 19.5864 389.176 19.6706 389.583 20.6328C389.389 20.782 389.062 20.8129 389.462 21.332C389.496 21.3757 389.728 20.9237 389.752 21.5166C389.762 21.7468 389.686 22.5901 389.288 22.3789C388.888 22.167 388.425 21.2094 388.135 21.71C388.119 21.7393 388.279 22.0378 388.277 22.1113C388.256 22.6671 387.7 22.2236 387.543 22.1992C387.01 22.1196 386.878 22.4541 386.598 22.7412C386.445 22.8984 387.025 23.4771 386.55 23.2432C386.475 23.2067 385.7 22.4489 385.667 22.4561C385.114 22.6697 385.908 24.4224 385.213 24.126C385.051 24.0549 384.857 23.206 384.614 23.668C384.55 23.7921 384.671 24.0184 384.544 24.1143C384.183 24.3881 383.495 24.3631 383.683 25.3428C383.252 25.4209 382.648 25.1865 382.25 25.2715C381.742 25.3819 381.498 25.8644 381.015 26.0273C380.902 26.0644 380.799 25.6113 380.698 25.6543C379.889 26.0207 379.249 26.6524 378.469 27.0869C378.061 26.3463 377.636 25.5939 377.238 24.8535C377.034 25.3347 377.659 25.8972 377.761 26.4268C377.863 26.9525 377.316 26.4526 377.298 26.9395C377.286 27.112 377.35 27.7571 377.217 27.9014C376.996 28.1404 376.629 28.1244 376.341 28.1357C376.053 28.1484 376.041 28.4452 375.744 28.4033C375.697 28.3945 375.549 28.1111 375.494 28.0674C375.057 27.7278 375.089 28.6087 375.087 28.6758C375.046 29.6855 374.653 28.639 374.405 28.4736C373.27 27.6865 373.679 29.0744 373.119 29.4932C372.95 29.6167 372.444 28.7379 372.144 28.7266C371.67 28.7143 371.375 29.1231 370.803 29.0586C370.685 29.0394 369.81 28.3265 370.056 29.2393C370.081 29.3227 370.779 30.7072 370.251 30.4756C370.182 30.4466 369.436 29.75 369.358 29.7275C369.005 29.6526 368.922 30.0692 368.698 30.0215C368.473 29.9726 368.015 29.0391 368.037 28.9863C368.328 28.3228 369.494 30.4257 368.679 28.3691C369.277 29.007 369.41 28.4165 369.847 28.2988C369.878 28.2937 369.957 28.7339 370.141 28.6289C370.561 28.3813 371.135 28.1268 371.482 27.6719C371.627 27.4643 371.26 27.3974 371.342 27.1406C371.427 26.8824 371.73 27.1895 371.739 26.6455C371.739 26.5022 371.762 25.6768 372.211 25.9688C372.264 26.0023 372.416 26.282 372.469 26.3037C372.696 26.3885 372.677 26.094 372.89 26.1699C372.941 26.1874 373.021 26.5126 373.112 26.5195C373.583 26.5476 373.784 26.4199 374.233 27.2393C374.481 26.9825 374.272 26.0209 374.427 25.7461C374.611 25.3973 374.972 25.7304 375.181 25.5996C375.392 25.4672 375.165 25.1893 375.343 25.0771C375.818 24.7779 376.427 24.7893 376.875 24.4424C376.985 24.3596 376.922 24.0105 377.085 23.9082C377.196 23.8402 377.685 24.4078 377.745 24.4023C379.056 24.2679 379.746 23.1433 380.974 22.9053C380.927 21.4183 382.488 23.5583 382.889 23.5791C383.888 23.6329 382.625 21.963 382.744 21.3535C382.849 20.7994 383.556 21.0898 383.704 20.9854C384.515 20.4115 384.92 19.8024 385.837 19.626C385.863 19.6286 385.965 20.0386 386.086 19.9834C386.342 19.867 386.629 19.5755 386.868 19.4434C387.018 19.3607 387.414 19.9125 387.439 19.9238C388.126 20.1521 388.253 19.4965 388.121 18.7607C387.988 18.0247 388.427 18.7584 388.394 18.3018C388.383 18.1587 388.248 17.9556 388.249 17.875C388.262 17.2803 388.847 17.7624 389.004 17.7939C389.656 17.9232 390.109 17.2207 390.449 17.0342C390.783 16.8503 390.386 16.6135 390.377 16.5674C390.323 15.9183 390.711 16.6621 390.748 16.6729C391.743 16.8847 392.121 16.0405 393.024 15.9805C393.109 15.9779 393.581 16.6579 393.556 16.0195C393.554 15.9775 393.341 15.6883 393.436 15.6035C393.713 15.3559 394.097 15.2408 394.419 15.0635C394.948 15.7452 395.54 15.7918 395.05 14.6826C395.533 14.392 396.163 13.6223 396.651 13.4951C397.271 13.3341 397.623 14.0071 398.099 13.6387C398.17 13.5803 397.946 13.2512 397.961 13.2246C398.387 12.6986 398.484 13.5359 398.896 14.1494C399.021 14.337 399.124 13.9459 399.224 14.0127C399.557 14.2347 399.681 14.6924 399.999 14.5586C400.529 14.3352 400.492 13.6379 400.001 12.6729C400.69 13.2688 400.711 14.0455 401.308 13.5078C401.364 13.455 401.103 13.0977 401.204 13.0166C401.947 12.4337 402.829 12.0668 403.568 11.4609C403.66 11.3826 403.43 11.0556 403.453 11.0303C403.847 10.6003 403.885 11.3774 404.275 11.9824C404.46 12.2677 405.161 12.6049 405.321 12.4746C405.48 12.3441 405.234 12.2054 405.25 12.0127C405.267 11.8201 405.452 12.0998 405.403 11.7793C405.355 11.4574 404.615 10.1551 405.163 10.2432C405.708 10.333 405.653 10.995 406.303 10.5381C406.663 10.2859 406.904 10.2569 407.569 9.94629C408.233 9.63394 409.633 8.46641 410.659 8.64355C410.93 8.69004 410.968 9.53276 411.152 9.79785C411.453 9.70202 411.066 9.31972 411.061 8.97461C411.056 8.62717 411.404 9.12563 411.395 8.60645C411.392 8.4637 411.342 7.78999 411.728 8.19727C411.753 8.22727 411.777 8.57086 411.943 8.56445C412.287 8.54961 412.423 8.34089 412.649 9.17773C412.841 8.71428 412.135 7.75235 412.639 7.77539C412.661 7.7802 412.707 8.20923 412.842 8.18359C414.572 7.85756 415.962 6.7134 417.716 6.25977C417.751 6.24918 418.196 6.32486 418.337 6.44727C418.361 6.46988 418.361 6.88923 418.566 6.84277C418.772 6.79553 419.306 6.66066 419.485 6.49512C419.664 6.3288 419.376 6.08439 419.468 5.98242C419.676 5.75425 419.588 6.33112 419.808 6.35449C420.104 6.38591 420.543 6.19509 420.769 6.02344C420.92 5.90859 420.744 5.62002 420.756 5.53125C420.851 4.91544 421.414 5.5767 421.502 5.61719C422.047 5.86202 422.187 5.40922 422.61 5.41406C422.716 5.41689 422.695 5.72581 422.799 5.66504C423.179 5.4412 423.249 4.08969 423.861 4.62402C424.118 4.85161 424.102 6.28685 424.571 5.63867C424.641 5.53967 424.464 5.33389 424.533 5.17188C424.601 5.00946 424.921 4.51796 425.077 4.68359C425.232 4.85167 425.529 6.5777 425.647 5.80078C425.768 5.02039 425.51 4.86289 425.969 4.25684C425.978 4.23318 425.761 3.89984 425.955 3.78223C426.151 3.66302 426.909 3.5305 427.074 3.47559C427.489 3.33905 427.626 4.49944 427.694 4.56641C428.221 5.05944 428.133 4.05782 428.355 3.70996C428.453 3.56035 428.599 3.68683 428.706 3.54785C428.739 3.50245 428.609 3.14082 428.624 3.13477C429.109 3.05039 429.399 5.09025 429.683 4.64355C429.716 4.58484 429.482 3.99401 429.566 3.7168C429.589 3.64007 429.833 2.62756 429.997 2.80371C430.642 3.50805 430.589 4.17353 431.326 3.82715C431.386 3.79788 431.27 3.39199 431.3 3.37695C432.207 2.90742 433.158 2.65425 434.103 2.50391C435.725 2.24614 437.397 2.28157 439.049 2.00098C439.514 2.99748 440.054 2.26843 440.678 2.48828C440.758 2.52173 440.927 3.36518 441.164 2.72852C441.178 2.68725 441.003 2.36073 441.243 2.30371C442.796 1.93495 444.45 1.83664 446.004 2.01172C446.237 2.03771 446.035 2.46917 446.117 2.48926C446.802 2.63903 447.302 1.77576 448.015 2.06738C448.072 2.09007 448.217 2.94368 448.468 2.36035C448.484 2.3231 448.46 1.9739 448.54 1.94434C448.915 1.8003 448.955 2.56786 449.347 2.4043C449.436 2.36608 449.295 1.95255 449.479 1.91504C450.309 1.75537 451.185 1.7763 452.009 1.91113C452.168 1.93841 451.934 2.39668 452.1 2.4082C452.818 2.45573 453.365 2.68596 454.178 2.29883C454.285 2.24519 454.832 1.44263 455.06 1.9834C455.087 2.05016 455.02 2.39896 455.132 2.45312C455.685 2.7142 456.333 2.65538 456.897 2.86426C457.03 2.91427 456.868 3.29281 456.955 3.3457C457.337 3.5822 457.068 3.09769 457.425 2.90332C457.98 2.60158 458.686 2.61376 459.269 2.61621C459.547 4.46655 460.977 3.82986 461.869 3.6123C462.014 3.57461 461.894 3.13961 462.037 3.12695C463.457 3.0051 464.841 3.1626 466.21 3.43848C466.339 3.46532 466.14 3.91009 466.246 3.93066C467.248 4.1306 468.15 4.06207 469.192 4.21582C470.068 4.34662 471.003 4.67651 471.914 4.84863C473.118 5.07486 474.283 4.81014 475.498 5.41699C475.565 5.45438 475.937 6.38753 476.286 5.83789C476.328 5.77244 476.324 5.45044 476.5 5.38965C476.677 5.3293 477.143 5.38955 477.311 5.49414C477.475 5.59807 477.246 5.95954 477.353 6.00293C477.858 6.19858 478.473 6.13117 478.955 6.22461C479.306 6.29548 479.367 6.31251 479.749 6.33203C479.95 6.34418 480.415 6.51685 480.685 6.48047C480.804 6.46384 480.787 6.06158 480.821 6.03906C481.315 5.72771 480.754 6.35171 481.142 6.50098C482.044 6.84686 483.152 7.06447 484.212 6.91113C484.479 6.87185 484.525 6.11916 484.792 6.65918C484.807 6.69573 484.651 7.03509 484.77 7.08398C485.837 7.50542 487.15 7.43008 488.245 7.63574C491.461 8.2331 494.591 8.89307 497.793 9.33105C498.462 9.42962 498.96 9.66562 499.609 9.69238L497.601 4.97266C496.829 3.15691 497.674 1.05878 499.49 0.286133ZM372.839 27.749C372.818 27.356 372.32 27.2467 372.341 27.5605C372.367 27.9519 372.855 28.0651 372.839 27.749ZM376.425 27.3145C377.022 27.4856 375.983 25.6371 375.85 26.293C375.843 26.3323 376.39 27.3028 376.425 27.3145ZM380.059 25.5918C380.053 25.0239 379.395 24.2692 379.378 25.0166C379.374 25.244 380.065 26.1568 380.059 25.5918ZM394.42 15.0625C394.357 14.4365 394.644 14.3729 395.054 14.7158C394.845 14.8379 394.626 14.9385 394.42 15.0625ZM410.037 12.707C410.432 12.947 409.899 11.5508 409.777 12.0254C409.77 12.0488 410.014 12.6856 410.037 12.707ZM409.542 10.1846C409.528 10.1688 409.328 10.2585 409.329 10.2793C409.404 10.7758 409.811 10.5927 409.542 10.1846ZM423.135 6.42188C423.109 6.29867 422.96 6.35523 422.961 6.37793C422.981 6.7582 423.22 6.81761 423.135 6.42188ZM432.493 3.58398C432.469 3.54786 431.96 3.65434 431.953 3.69824C431.836 4.53595 432.858 4.31857 432.493 3.58398Z" fill="#2D96BC"/>
<path d="M732.278 28.9248C733.053 28.2576 733.454 30.0411 732.689 30.5723C732.69 30.5726 732.691 30.5739 732.692 30.5742C732.66 30.5943 732.375 30.4597 732.152 30.2744C732.059 30.1707 731.879 30.1143 731.805 30.0273C731.726 29.943 731.692 29.8636 731.677 29.8408C731.633 29.7815 731.735 29.6678 731.74 29.6338C731.758 29.5922 731.791 29.5652 731.835 29.5488C731.913 29.5214 732.087 29.507 732.178 29.5498C732.393 29.617 732.646 29.7055 732.794 29.4561C732.921 29.2013 732.124 29.0535 732.278 28.9248ZM865.322 0.286133C867.138 -0.48634 869.236 0.35918 870.008 2.1748L875.437 14.9336C876.302 16.9663 875.355 19.3149 873.322 20.1797L860.564 25.6084C858.748 26.3809 856.65 25.5352 855.878 23.7197C855.105 21.9039 855.95 19.8048 857.766 19.0322L862.305 17.1006C862.292 17.096 862.278 17.0926 862.265 17.0879C862.111 17.0322 862.307 16.6734 862.297 16.6416C862.224 16.4282 861.746 16.1751 861.696 16.1367C861.42 15.926 861.243 16.7635 861.124 16.7793C859.887 16.9361 858.895 16.527 857.779 16.2373C857.597 16.1902 857.884 15.7641 857.79 15.7402C855.462 15.1726 853.146 14.9138 850.865 14.2119C850.921 13.9459 850.992 13.6547 851.034 13.4033C850.843 13.1783 850.533 14.0438 850.414 14.0576C848.656 14.2363 847.129 13.8038 845.567 13.4102C845.337 13.353 845.703 12.9734 845.531 12.9033C845.125 12.7409 844.675 12.6737 844.228 12.7217C844.042 12.7435 844.192 13.1619 844.006 13.1914C843.623 13.2522 843.171 13.1799 842.831 13.0391C842.664 12.9717 842.911 12.5739 842.805 12.541C841.502 12.1276 840.197 12.0463 838.887 11.6748C838.79 11.6433 838.996 11.2118 838.88 11.1836C837.044 10.737 835.461 10.7818 833.474 10.6025C831.959 10.4679 829.963 10.3512 828.417 9.83301C828.099 9.72787 827.91 10.0128 827.589 9.63184C827.519 9.5479 827.273 8.74462 826.955 9.2627C826.909 9.33678 826.965 9.69686 826.792 9.72168C825.869 9.84531 824.919 9.76382 824.019 9.57324C823.868 9.54225 824.114 9.11756 823.947 9.07617C823.486 8.96871 822.972 8.87604 822.486 9.04102C822.313 9.1002 822.426 9.81841 822.206 9.45117C822.185 9.41366 822.318 9.03457 822.195 8.99316C821.749 8.84032 821.33 9.18133 820.865 8.84473C820.79 8.78882 820.732 7.95815 820.429 8.53809C820.411 8.57573 820.516 8.92929 820.307 8.95703C819.738 9.02962 819.023 9.06784 818.462 8.91309C818.259 8.85676 818.502 8.46149 818.366 8.41504C817.856 8.2442 817.322 8.24242 816.827 8.07324C816.688 8.02293 816.809 7.63561 816.789 7.6123C816.623 7.48421 816.37 8.19815 816.278 8.37012C815.932 9.01859 815.4 7.94022 815.345 7.80566C815.033 7.00943 815.058 7.90942 814.987 8.0127C814.646 8.50692 814.686 7.76297 814.547 7.66016C814.079 7.32008 813.541 7.59336 813.114 7.59668C812.853 7.59979 813.043 8.01225 813.012 8.04199C812.654 8.33168 812.338 8.45573 811.987 8.49902C811.841 8.51825 811.881 8.19345 811.723 8.1709C811.369 8.12364 810.981 8.30215 810.609 8.21875C810.502 8.19387 810.637 7.77256 810.509 7.73926C809.888 7.58154 809.404 8.03985 808.725 7.69824C808.656 7.66376 808.347 6.60844 808.051 6.71582C807.441 6.94217 808.444 7.36001 807.653 7.91504C806.672 8.6054 804.744 8.35166 803.632 8.39453C803.335 8.4046 803.483 8.07315 803.282 8.0957C802.359 8.20321 801.451 8.53207 800.57 8.69141C800.135 8.76982 799.691 8.80975 799.229 8.7627C798.906 8.72995 799.021 7.80036 798.775 7.56934C798.528 7.33902 798.13 7.54119 797.945 7.72168C797.762 7.90235 797.944 8.45079 797.765 8.56348C797.262 8.88313 796.664 8.73891 796.155 9.0166C796.048 9.07497 796.171 9.41131 796.152 9.50098C796.031 10.0726 795.641 9.41421 795.562 9.34375C795.121 8.9454 794.79 9.29292 794.456 9.12695C794.238 9.01925 794.324 8.7632 794.232 8.67383C793.747 8.21701 793.977 9.24563 793.981 9.41309C794.001 10.4241 793.226 9.10694 793.194 9.06836C792.744 8.5102 792.649 9.34857 792.576 9.51074C792.337 10.0258 791.888 9.84251 791.653 9.93848C791.419 10.0338 791.467 9.6027 791.448 9.56836C791.128 9.07847 791.078 9.90919 791.075 9.9668C791.025 10.7819 790.309 10.0158 790.233 10.0078C788.929 9.94161 788.205 10.9254 786.909 10.8506C786.855 10.8477 786.327 10.1066 786.269 10.7324C786.261 10.836 786.447 11.1234 786.302 11.2207C785.713 11.6104 784.986 11.836 784.306 11.9785C784.162 12.008 784.155 11.5241 784.056 11.5498C783.33 11.7335 782.625 12.128 781.95 12.3984C781.806 12.4558 781.722 12.1771 781.698 12.1719C781.421 12.1383 781.652 12.5653 781.393 12.5439C781.194 12.5253 780.506 11.3502 780.386 11.3174C779.876 11.185 779.82 11.5398 779.76 12.1914C779.744 12.371 780.19 13.1974 779.72 12.875C779.702 12.8577 779.625 12.4943 779.581 12.4902C779.246 12.4665 779.115 12.7195 778.772 12.7559C778.338 12.8029 777.558 12.9377 777.197 13.1025C776.436 13.4462 776.164 14.0588 775.229 13.8223C775.197 13.8094 774.873 13.0309 774.667 13.3174C774.459 13.6061 774.095 14.0913 773.73 14.125C773.728 14.9245 773.42 15.151 772.87 15.0186C772.32 14.8861 771.787 14.517 771.324 14.9014C771.292 14.9309 771.471 15.3273 771.458 15.3408C770.607 15.8618 769.667 16.122 768.635 16.1572C768.592 16.1584 768.488 15.7818 768.399 15.7695C768.235 15.7497 767.596 16.1067 767.582 16.2178C767.572 16.2068 767.25 15.5424 767.31 15.9893C767.211 16.2545 767.573 16.2135 767.582 16.2178C767.561 16.389 767.356 17.5229 766.826 17.1523C766.551 16.9613 766.48 16.5449 766.052 16.6201C765.392 16.7344 764.771 17.6428 764.094 18.0127C763.706 18.226 762.921 18.3144 762.535 18.4844C761.743 18.8335 761.162 19.3744 760.379 19.668C760.277 19.7068 760.181 19.3006 760.146 19.2988C759.76 19.3047 759.595 19.7013 759.231 19.7471C759.094 19.7645 759.106 19.3272 758.912 19.3721C758.369 19.4994 758.022 20.391 757.363 20.2002C757.074 20.1162 756.867 19.4221 756.595 19.4502C755.997 19.513 756.377 19.9147 756.394 20.4004C756.424 21.44 756.036 21.4743 755.416 20.6328C755.439 20.5695 755.649 20.5793 755.619 20.4814C755.339 19.5864 755.008 19.6706 755.416 20.6328C755.221 20.782 754.894 20.8129 755.294 21.332C755.328 21.3757 755.56 20.9237 755.585 21.5166C755.594 21.7468 755.518 22.5901 755.12 22.3789C754.721 22.167 754.257 21.2094 753.967 21.71C753.951 21.7393 754.111 22.0378 754.109 22.1113C754.088 22.6671 753.532 22.2236 753.376 22.1992C752.842 22.1196 752.71 22.4541 752.43 22.7412C752.277 22.8984 752.858 23.4771 752.382 23.2432C752.307 23.2067 751.532 22.4489 751.5 22.4561C750.946 22.6697 751.741 24.4224 751.045 24.126C750.883 24.0549 750.689 23.206 750.446 23.668C750.382 23.7921 750.503 24.0184 750.377 24.1143C750.015 24.3881 749.327 24.3631 749.515 25.3428C749.084 25.4209 748.48 25.1865 748.083 25.2715C747.574 25.3819 747.33 25.8644 746.847 26.0273C746.734 26.0644 746.631 25.6113 746.53 25.6543C745.721 26.0207 745.081 26.6524 744.301 27.0869C743.893 26.3463 743.468 25.5939 743.07 24.8535C742.866 25.3347 743.491 25.8972 743.593 26.4268C743.695 26.9525 743.148 26.4526 743.13 26.9395C743.118 27.112 743.182 27.7571 743.049 27.9014C742.828 28.1404 742.461 28.1244 742.173 28.1357C741.885 28.1484 741.873 28.4452 741.576 28.4033C741.529 28.3945 741.381 28.1111 741.326 28.0674C740.889 27.7278 740.921 28.6087 740.919 28.6758C740.878 29.6855 740.485 28.639 740.237 28.4736C739.102 27.6865 739.511 29.0744 738.951 29.4932C738.782 29.6167 738.277 28.7379 737.976 28.7266C737.502 28.7143 737.207 29.1231 736.635 29.0586C736.517 29.0394 735.642 28.3265 735.888 29.2393C735.913 29.3227 736.611 30.7072 736.084 30.4756C736.014 30.4466 735.268 29.75 735.19 29.7275C734.837 29.6526 734.754 30.0692 734.53 30.0215C734.306 29.9726 733.847 29.0391 733.869 28.9863C734.16 28.3228 735.326 30.4257 734.511 28.3691C735.109 29.007 735.242 28.4165 735.679 28.2988C735.711 28.2937 735.789 28.7339 735.973 28.6289C736.393 28.3813 736.967 28.1268 737.314 27.6719C737.459 27.4643 737.092 27.3974 737.174 27.1406C737.259 26.8824 737.562 27.1895 737.571 26.6455C737.572 26.5022 737.594 25.6768 738.044 25.9688C738.096 26.0023 738.248 26.282 738.301 26.3037C738.528 26.3885 738.51 26.094 738.722 26.1699C738.773 26.1874 738.853 26.5126 738.944 26.5195C739.415 26.5476 739.616 26.4199 740.065 27.2393C740.313 26.9825 740.104 26.0209 740.259 25.7461C740.444 25.3973 740.804 25.7304 741.013 25.5996C741.224 25.4672 740.997 25.1893 741.175 25.0771C741.651 24.7779 742.259 24.7893 742.708 24.4424C742.817 24.3596 742.755 24.0105 742.918 23.9082C743.028 23.8402 743.517 24.4078 743.577 24.4023C744.888 24.2679 745.578 23.1433 746.806 22.9053C746.759 21.4183 748.32 23.5583 748.721 23.5791C749.72 23.6329 748.457 21.963 748.576 21.3535C748.681 20.7994 749.388 21.0898 749.536 20.9854C750.348 20.4115 750.752 19.8024 751.669 19.626C751.695 19.6286 751.797 20.0386 751.919 19.9834C752.174 19.867 752.461 19.5755 752.7 19.4434C752.85 19.3607 753.246 19.9125 753.271 19.9238C753.958 20.1521 754.085 19.4965 753.953 18.7607C753.82 18.0247 754.259 18.7584 754.226 18.3018C754.215 18.1587 754.08 17.9556 754.081 17.875C754.094 17.2803 754.679 17.7624 754.836 17.7939C755.489 17.9232 755.941 17.2207 756.281 17.0342C756.615 16.8503 756.218 16.6135 756.21 16.5674C756.155 15.9183 756.543 16.6621 756.58 16.6729C757.575 16.8847 757.953 16.0405 758.856 15.9805C758.941 15.9779 759.413 16.6579 759.388 16.0195C759.386 15.9775 759.173 15.6883 759.268 15.6035C759.545 15.3559 759.929 15.2408 760.252 15.0635C760.78 15.7452 761.372 15.7918 760.882 14.6826C761.366 14.392 761.995 13.6223 762.483 13.4951C763.103 13.3341 763.455 14.0071 763.931 13.6387C764.002 13.5803 763.778 13.2512 763.794 13.2246C764.219 12.6986 764.317 13.5359 764.728 14.1494C764.853 14.337 764.956 13.9459 765.056 14.0127C765.389 14.2347 765.513 14.6924 765.831 14.5586C766.361 14.3352 766.324 13.6379 765.834 12.6729C766.522 13.2688 766.544 14.0455 767.14 13.5078C767.196 13.455 766.935 13.0977 767.036 13.0166C767.78 12.4337 768.661 12.0668 769.4 11.4609C769.492 11.3826 769.262 11.0556 769.285 11.0303C769.679 10.6003 769.717 11.3774 770.107 11.9824C770.292 12.2677 770.993 12.6049 771.153 12.4746C771.312 12.3441 771.066 12.2054 771.083 12.0127C771.099 11.8201 771.284 12.0998 771.235 11.7793C771.187 11.4574 770.447 10.1551 770.995 10.2432C771.541 10.333 771.486 10.995 772.135 10.5381C772.496 10.2859 772.736 10.2569 773.401 9.94629C774.065 9.63394 775.465 8.46641 776.491 8.64355C776.762 8.69004 776.8 9.53276 776.984 9.79785C777.285 9.70202 776.898 9.31972 776.893 8.97461C776.888 8.62717 777.236 9.12563 777.227 8.60645C777.224 8.4637 777.174 7.78999 777.56 8.19727C777.585 8.22727 777.609 8.57086 777.775 8.56445C778.119 8.54961 778.255 8.34089 778.481 9.17773C778.673 8.71428 777.967 7.75235 778.471 7.77539C778.494 7.7802 778.539 8.20923 778.674 8.18359C780.404 7.85756 781.795 6.7134 783.548 6.25977C783.583 6.24918 784.028 6.32486 784.169 6.44727C784.193 6.46988 784.193 6.88923 784.398 6.84277C784.604 6.79553 785.139 6.66066 785.317 6.49512C785.496 6.3288 785.208 6.08439 785.3 5.98242C785.508 5.75425 785.42 6.33112 785.64 6.35449C785.936 6.38591 786.375 6.19509 786.601 6.02344C786.752 5.90859 786.576 5.62002 786.588 5.53125C786.683 4.91544 787.246 5.5767 787.335 5.61719C787.879 5.86202 788.019 5.40922 788.442 5.41406C788.548 5.41689 788.527 5.72581 788.631 5.66504C789.011 5.4412 789.082 4.08969 789.693 4.62402C789.95 4.85161 789.934 6.28685 790.403 5.63867C790.474 5.53967 790.296 5.33389 790.365 5.17188C790.433 5.00946 790.753 4.51796 790.909 4.68359C791.064 4.85167 791.361 6.5777 791.479 5.80078C791.601 5.02039 791.342 4.86289 791.801 4.25684C791.81 4.23318 791.593 3.89984 791.787 3.78223C791.983 3.66302 792.741 3.5305 792.906 3.47559C793.321 3.33905 793.458 4.49944 793.526 4.56641C794.053 5.05944 793.965 4.05782 794.187 3.70996C794.285 3.56035 794.431 3.68683 794.538 3.54785C794.571 3.50245 794.441 3.14082 794.456 3.13477C794.942 3.05039 795.231 5.09025 795.515 4.64355C795.548 4.58484 795.314 3.99401 795.398 3.7168C795.421 3.64007 795.665 2.62756 795.829 2.80371C796.474 3.50805 796.421 4.17353 797.158 3.82715C797.218 3.79788 797.102 3.39199 797.132 3.37695C798.039 2.90742 798.991 2.65425 799.935 2.50391C801.557 2.24614 803.23 2.28157 804.881 2.00098C805.346 2.99748 805.886 2.26843 806.51 2.48828C806.59 2.52173 806.759 3.36518 806.996 2.72852C807.01 2.68725 806.836 2.36073 807.075 2.30371C808.628 1.93495 810.283 1.83664 811.836 2.01172C812.069 2.03771 811.868 2.46917 811.949 2.48926C812.634 2.63903 813.134 1.77576 813.847 2.06738C813.905 2.09007 814.049 2.94368 814.3 2.36035C814.317 2.3231 814.293 1.9739 814.372 1.94434C814.747 1.8003 814.787 2.56786 815.179 2.4043C815.269 2.36608 815.127 1.95255 815.311 1.91504C816.141 1.75537 817.017 1.7763 817.841 1.91113C818.001 1.93841 817.766 2.39668 817.932 2.4082C818.65 2.45573 819.198 2.68596 820.01 2.29883C820.117 2.24519 820.664 1.44263 820.892 1.9834C820.919 2.05016 820.852 2.39896 820.964 2.45312C821.518 2.7142 822.165 2.65538 822.729 2.86426C822.862 2.91427 822.7 3.29281 822.787 3.3457C823.169 3.5822 822.9 3.09769 823.257 2.90332C823.812 2.60158 824.518 2.61376 825.101 2.61621C825.379 4.46655 826.809 3.82986 827.701 3.6123C827.846 3.57461 827.726 3.13961 827.869 3.12695C829.289 3.0051 830.674 3.1626 832.043 3.43848C832.171 3.46532 831.972 3.91009 832.078 3.93066C833.08 4.1306 833.982 4.06207 835.024 4.21582C835.9 4.34662 836.835 4.67651 837.746 4.84863C838.95 5.07486 840.115 4.81014 841.33 5.41699C841.397 5.45438 841.769 6.38753 842.118 5.83789C842.16 5.77244 842.156 5.45044 842.332 5.38965C842.509 5.3293 842.975 5.38955 843.143 5.49414C843.308 5.59807 843.078 5.95954 843.185 6.00293C843.69 6.19858 844.305 6.13117 844.787 6.22461C845.138 6.29548 845.199 6.31251 845.581 6.33203C845.782 6.34418 846.247 6.51685 846.517 6.48047C846.636 6.46384 846.619 6.06158 846.653 6.03906C847.147 5.72771 846.586 6.35171 846.974 6.50098C847.876 6.84686 848.984 7.06447 850.044 6.91113C850.311 6.87185 850.357 6.11916 850.624 6.65918C850.639 6.69573 850.483 7.03509 850.602 7.08398C851.669 7.50542 852.982 7.43008 854.077 7.63574C857.293 8.2331 860.423 8.89307 863.626 9.33105C864.294 9.42962 864.792 9.66562 865.441 9.69238L863.433 4.97266C862.661 3.15691 863.506 1.05878 865.322 0.286133ZM738.671 27.749C738.65 27.356 738.152 27.2467 738.173 27.5605C738.199 27.9519 738.688 28.0651 738.671 27.749ZM742.257 27.3145C742.854 27.4856 741.815 25.6371 741.682 26.293C741.675 26.3323 742.222 27.3028 742.257 27.3145ZM745.891 25.5918C745.886 25.0239 745.227 24.2692 745.211 25.0166C745.206 25.244 745.897 26.1568 745.891 25.5918ZM760.253 15.0625C760.189 14.4365 760.476 14.3729 760.886 14.7158C760.677 14.8379 760.458 14.9385 760.253 15.0625ZM775.869 12.707C776.264 12.947 775.731 11.5508 775.609 12.0254C775.602 12.0488 775.846 12.6856 775.869 12.707ZM775.374 10.1846C775.361 10.1688 775.161 10.2585 775.161 10.2793C775.237 10.7758 775.643 10.5927 775.374 10.1846ZM788.967 6.42188C788.941 6.29867 788.792 6.35523 788.794 6.37793C788.813 6.7582 789.052 6.81761 788.967 6.42188ZM798.325 3.58398C798.301 3.54786 797.793 3.65434 797.785 3.69824C797.668 4.53595 798.69 4.31857 798.325 3.58398Z" fill="#2D96BC"/>
</svg>
